<mxfile host="Electron" agent="Mozilla/5.0 (X11; Linux x86_64) AppleWebKit/537.36 (KHTML, like Gecko) draw.io/24.7.8 Chrome/128.0.6613.36 Electron/32.0.1 Safari/537.36" version="24.7.8">
  <diagram name="Page-1" id="KSj8YXYTqCIhzLJ2upi-">
    <mxGraphModel dx="708" dy="598" grid="1" gridSize="10" guides="1" tooltips="1" connect="1" arrows="1" fold="1" page="1" pageScale="1" pageWidth="827" pageHeight="1169" background="#ffffff" math="0" shadow="0">
      <root>
        <mxCell id="0" />
        <mxCell id="1" parent="0" />
        <mxCell id="eawxCGLqawX-e3vyKS13-1" value="OS" style="rounded=1;whiteSpace=wrap;html=1;fillColor=none;fontColor=#000000;strokeColor=#A50040;strokeWidth=3;verticalAlign=top;" vertex="1" parent="1">
          <mxGeometry x="180" y="130" width="360" height="150" as="geometry" />
        </mxCell>
        <mxCell id="eawxCGLqawX-e3vyKS13-2" value="La CLI ou le GUI gère les exceptions" style="rounded=1;whiteSpace=wrap;html=1;fillColor=none;fontColor=#000000;strokeColor=#2D7600;strokeWidth=3;verticalAlign=top;" vertex="1" parent="1">
          <mxGeometry x="190" y="170" width="340" height="100" as="geometry" />
        </mxCell>
        <mxCell id="eawxCGLqawX-e3vyKS13-3" value="Les modules, classes, fonctions lèvent des ecxeptions" style="rounded=1;whiteSpace=wrap;html=1;fillColor=none;fontColor=#000000;strokeColor=#006EAF;strokeWidth=3;" vertex="1" parent="1">
          <mxGeometry x="200" y="210" width="320" height="50" as="geometry" />
        </mxCell>
      </root>
    </mxGraphModel>
  </diagram>
</mxfile>
